<?xml version="1.0" encoding="utf-8"?><!DOCTYPE svg PUBLIC "-//W3C//DTD SVG 1.1//EN" "http://www.w3.org/Graphics/SVG/1.1/DTD/svg11.dtd"><svg version="1.1" id="Layer_5" xmlns="http://www.w3.org/2000/svg" xmlns:xlink="http://www.w3.org/1999/xlink" x="0px" y="0px" width="136px" height="36px" viewBox="0 0 105.746 36.524" enable-background="new 0 0 105.746 36.524" xml:space="preserve"><g><polygon fill="#484949" stroke="#FFFFFF" stroke-miterlimit="10" points="105.246,0.5 0.5,0.5 0.5,22.811 45.973,22.811 53.323,35.525 60.673,22.811 105.246,22.811 "/><g><path fill="#FFFFFF" d="M16.667,6.299c2.423,0,3.67,1.359,3.67,1.359l-0.868,1.344c0,0-1.135-1.051-2.718-1.051c-2.101,0-3.333,1.57-3.333,3.418c0,1.891,1.274,3.559,3.348,3.559c1.723,0,2.886-1.262,2.886-1.262l0.952,1.303c0,0-1.373,1.611-3.908,1.611c-3.04,0-5.141-2.254-5.141-5.182C11.555,8.512,13.74,6.299,16.667,6.299z"/><path fill="#FFFFFF" d="M26.804,6.299c2.927,0,5.141,2.227,5.141,5.07c0,2.928-2.213,5.211-5.141,5.211c-2.928,0-5.141-2.283-5.141-5.211C21.663,8.525,23.876,6.299,26.804,6.299z M26.804,14.928c1.821,0,3.277-1.514,3.277-3.559c0-1.961-1.457-3.418-3.277-3.418c-1.821,0-3.278,1.457-3.278,3.418C23.526,13.414,24.982,14.928,26.804,14.928z"/><path fill="#FFFFFF" d="M33.913,6.467h3.208c1.079,0,1.569,0.084,2.003,0.281c0.994,0.447,1.625,1.4,1.625,2.717c0,1.189-0.63,2.297-1.681,2.717v0.029c0,0,0.14,0.139,0.336,0.49l2.045,3.711h-2.017l-1.975-3.711H35.72v3.711h-1.807V6.467z M37.345,11.131c0.967,0,1.569-0.574,1.569-1.568c0-0.953-0.406-1.541-1.821-1.541H35.72v3.109H37.345z"/><path fill="#FFFFFF" d="M43.265,6.467h1.807v4.049h1.289L48.7,6.467h1.961l-2.815,4.734v0.029l2.983,5.182h-2.031L46.36,12.07h-1.289v4.342h-1.807V6.467z"/><path fill="#FFFFFF" d="M54.522,8.021h-3.264V6.467h8.334v1.555h-3.264v8.391h-1.807V8.021z"/><path fill="#FFFFFF" d="M65.416,6.299c2.927,0,5.141,2.227,5.141,5.07c0,2.928-2.214,5.211-5.141,5.211c-2.928,0-5.142-2.283-5.142-5.211C60.274,8.525,62.488,6.299,65.416,6.299z M65.416,14.928c1.82,0,3.277-1.514,3.277-3.559c0-1.961-1.457-3.418-3.277-3.418c-1.821,0-3.278,1.457-3.278,3.418C62.137,13.414,63.594,14.928,65.416,14.928z"/><path fill="#FFFFFF" d="M80.524,13.344c0.153,0.576,0.168,1.051,0.182,1.051h0.028c0,0,0.042-0.49,0.168-1.051l1.639-6.877h1.863l-2.563,9.945h-2.087l-1.527-5.883c-0.168-0.645-0.252-1.303-0.252-1.303h-0.028c0,0-0.084,0.658-0.252,1.303l-1.526,5.883H74.08l-2.493-9.945h1.863l1.568,6.877c0.127,0.561,0.169,1.051,0.169,1.051h0.027c0.015,0,0.028-0.475,0.183-1.051l1.793-6.877h1.568L80.524,13.344z"/><path fill="#FFFFFF" d="M86.147,6.467h1.807l3.769,5.744c0.378,0.574,0.826,1.539,0.826,1.539h0.027c0,0-0.098-0.951-0.098-1.539V6.467h1.793v9.945h-1.793l-3.768-5.729c-0.379-0.574-0.827-1.541-0.827-1.541h-0.027c0,0,0.098,0.953,0.098,1.541v5.729h-1.807V6.467z"/></g></g></svg>