<?xml version="1.0" encoding="utf-8"?><!DOCTYPE svg PUBLIC "-//W3C//DTD SVG 1.1//EN" "http://www.w3.org/Graphics/SVG/1.1/DTD/svg11.dtd"><svg version="1.1" id="Layer_4" xmlns="http://www.w3.org/2000/svg" xmlns:xlink="http://www.w3.org/1999/xlink" x="0px" y="0px" width="136px" height="36px" viewBox="0 0 110.247 36.523" enable-background="new 0 0 110.247 36.523" xml:space="preserve"><g><polygon fill="#484949" stroke="#FFFFFF" stroke-miterlimit="10" points="109.747,0.5 0.5,0.5 0.5,22.81 47.773,22.81 55.123,35.524 62.473,22.81 109.747,22.81 "/><g><path fill="#FFFFFF" d="M10.926,6.468h3.39c3.068,0,5.071,1.82,5.071,4.959c0,3.137-2.003,4.986-5.071,4.986h-3.39V6.468z M14.217,14.858c2.017,0,3.306-1.191,3.306-3.432c0-2.213-1.317-3.404-3.306-3.404h-1.484v6.836H14.217z"/><path fill="#FFFFFF" d="M25.866,6.3c2.927,0,5.141,2.227,5.141,5.07c0,2.928-2.213,5.211-5.141,5.211c-2.928,0-5.141-2.283-5.141-5.211C20.725,8.526,22.938,6.3,25.866,6.3z M25.866,14.929c1.821,0,3.277-1.514,3.277-3.559c0-1.961-1.457-3.418-3.277-3.418c-1.821,0-3.278,1.457-3.278,3.418C22.588,13.415,24.045,14.929,25.866,14.929z"/><path fill="#FFFFFF" d="M40.974,13.345c0.154,0.575,0.168,1.051,0.182,1.051h0.028c0,0,0.042-0.49,0.168-1.051l1.639-6.877h1.863l-2.563,9.945h-2.087l-1.527-5.883c-0.168-0.645-0.252-1.303-0.252-1.303h-0.028c0,0-0.084,0.658-0.252,1.303l-1.527,5.883H34.53l-2.493-9.945H33.9l1.569,6.877c0.126,0.561,0.168,1.051,0.168,1.051h0.028c0.014,0,0.028-0.476,0.182-1.051l1.793-6.877h1.569L40.974,13.345z"/><path fill="#FFFFFF" d="M46.598,6.468h1.807l3.768,5.743c0.378,0.574,0.826,1.54,0.826,1.54h0.028c0,0-0.098-0.951-0.098-1.54V6.468h1.793v9.945h-1.793l-3.768-5.729c-0.378-0.574-0.827-1.541-0.827-1.541h-0.028c0,0,0.098,0.952,0.098,1.541v5.729h-1.807V6.468z"/><path fill="#FFFFFF" d="M59.437,8.022h-3.264V6.468h8.334v1.555h-3.264v8.391h-1.807V8.022z"/><path fill="#FFFFFF" d="M70.331,6.3c2.927,0,5.141,2.227,5.141,5.07c0,2.928-2.214,5.211-5.141,5.211c-2.928,0-5.142-2.283-5.142-5.211C65.189,8.526,67.403,6.3,70.331,6.3z M70.331,14.929c1.82,0,3.277-1.514,3.277-3.559c0-1.961-1.457-3.418-3.277-3.418c-1.821,0-3.278,1.457-3.278,3.418C67.052,13.415,68.509,14.929,70.331,14.929z"/><path fill="#FFFFFF" d="M85.438,13.345c0.154,0.575,0.168,1.051,0.182,1.051h0.028c0,0,0.042-0.49,0.168-1.051l1.64-6.877h1.862l-2.563,9.945h-2.087l-1.526-5.883c-0.168-0.645-0.253-1.303-0.253-1.303h-0.027c0,0-0.084,0.658-0.252,1.303l-1.527,5.883h-2.087l-2.493-9.945h1.862l1.569,6.877c0.126,0.561,0.168,1.051,0.168,1.051h0.028c0.014,0,0.027-0.476,0.182-1.051l1.793-6.877h1.569L85.438,13.345z"/><path fill="#FFFFFF" d="M91.062,6.468h1.807l3.769,5.743c0.378,0.574,0.826,1.54,0.826,1.54h0.027c0,0-0.098-0.951-0.098-1.54V6.468h1.793v9.945h-1.793l-3.768-5.729c-0.379-0.574-0.827-1.541-0.827-1.541h-0.027c0,0,0.098,0.952,0.098,1.541v5.729h-1.807V6.468z"/></g></g></svg>