<?xml version="1.0" encoding="utf-8"?><!DOCTYPE svg PUBLIC "-//W3C//DTD SVG 1.1//EN" "http://www.w3.org/Graphics/SVG/1.1/DTD/svg11.dtd"><svg version="1.1" id="Layer_3" xmlns="http://www.w3.org/2000/svg" xmlns:xlink="http://www.w3.org/1999/xlink" x="0px" y="0px" width="136px" height="36px" viewBox="0 0 143.546 36.523" enable-background="new 0 0 143.546 36.523" xml:space="preserve"><g><polygon fill="#484949" stroke="#FFFFFF" stroke-miterlimit="10" points="143.046,0.5 0.5,0.5 0.5,22.81 63.973,22.81 71.323,35.524 78.674,22.81 143.046,22.81 "/><g><path fill="#FFFFFF" d="M11.383,6.466h5.953v1.555H13.19v2.605h3.348v1.555H13.19v2.676h4.37v1.555h-6.177V6.466z"/><path fill="#FFFFFF" d="M24.518,13.861h-3.488l-0.84,2.55h-1.863l3.502-9.945h1.891l3.502,9.945h-1.863L24.518,13.861z M22.767,8.188c0,0-0.224,0.98-0.42,1.541l-0.882,2.661h2.605l-0.883-2.661c-0.182-0.561-0.392-1.541-0.392-1.541H22.767z"/><path fill="#FFFFFF" d="M28.855,13.861c0,0,1.079,1.051,2.479,1.051c0.756,0,1.442-0.393,1.442-1.205c0-1.778-4.692-1.471-4.692-4.524c0-1.652,1.429-2.885,3.334-2.885c1.961,0,2.969,1.064,2.969,1.064l-0.784,1.471c0,0-0.953-0.869-2.199-0.869c-0.84,0-1.499,0.491-1.499,1.191c0,1.765,4.679,1.33,4.679,4.51c0,1.583-1.205,2.914-3.278,2.914c-2.213,0-3.432-1.358-3.432-1.358L28.855,13.861z"/><path fill="#FFFFFF" d="M38.585,8.021h-3.264V6.466h8.334v1.555h-3.264v8.391h-1.807V8.021z"/><path fill="#FFFFFF" d="M45.108,6.466h5.953v1.555h-4.146v2.605h3.348v1.555h-3.348v2.676h4.37v1.555h-6.177V6.466z"/><path fill="#FFFFFF" d="M53.298,6.466h3.208c1.079,0,1.569,0.084,2.003,0.28c0.994,0.448,1.625,1.4,1.625,2.717c0,1.19-0.63,2.298-1.681,2.718v0.028c0,0,0.14,0.14,0.336,0.49l2.045,3.712h-2.017l-1.975-3.712h-1.737v3.712h-1.807V6.466z M56.73,11.13c0.967,0,1.569-0.574,1.569-1.568c0-0.953-0.406-1.541-1.821-1.541h-1.373v3.109H56.73z"/><path fill="#FFFFFF" d="M62.65,6.466h1.807l3.768,5.743c0.378,0.574,0.827,1.54,0.827,1.54h0.028c0,0-0.098-0.952-0.098-1.54V6.466h1.793v9.945h-1.793l-3.768-5.729c-0.378-0.574-0.827-1.541-0.827-1.541h-0.028c0,0,0.098,0.953,0.098,1.541v5.729H62.65V6.466z"/><path fill="#FFFFFF" d="M77.477,6.466h1.933l1.947,4.916c0.224,0.589,0.504,1.457,0.504,1.457h0.028c0,0,0.266-0.868,0.49-1.457l1.947-4.916h1.933l0.799,9.945h-1.793l-0.421-5.562c-0.042-0.658-0.014-1.541-0.014-1.541h-0.028c0,0-0.294,0.967-0.532,1.541l-1.61,3.853h-1.583L79.48,10.85c-0.238-0.574-0.547-1.555-0.547-1.555h-0.028c0,0,0.028,0.896-0.014,1.555l-0.42,5.562h-1.807L77.477,6.466z"/><path fill="#FFFFFF" d="M94.349,13.861h-3.488l-0.841,2.55h-1.862l3.502-9.945h1.891l3.502,9.945h-1.863L94.349,13.861z M92.598,8.188c0,0-0.225,0.98-0.421,1.541l-0.882,2.661h2.605l-0.883-2.661c-0.183-0.561-0.393-1.541-0.393-1.541H92.598z"/><path fill="#FFFFFF" d="M98.462,6.466h3.207c1.079,0,1.569,0.084,2.004,0.28c0.994,0.448,1.624,1.4,1.624,2.717c0,1.19-0.63,2.298-1.681,2.718v0.028c0,0,0.141,0.14,0.336,0.49l2.046,3.712h-2.018l-1.975-3.712h-1.737v3.712h-1.807V6.466z M101.894,11.13c0.967,0,1.568-0.574,1.568-1.568c0-0.953-0.406-1.541-1.82-1.541h-1.373v3.109H101.894z"/><path fill="#FFFFFF" d="M107.814,6.466h1.808v4.048h1.288l2.34-4.048h1.961l-2.815,4.734v0.028l2.983,5.183h-2.031l-2.438-4.343h-1.288v4.343h-1.808V6.466z"/><path fill="#FFFFFF" d="M117.012,6.466h5.953v1.555h-4.146v2.605h3.348v1.555h-3.348v2.676h4.37v1.555h-6.177V6.466z"/><path fill="#FFFFFF" d="M127.261,8.021h-3.264V6.466h8.334v1.555h-3.264v8.391h-1.807V8.021z"/></g></g></svg>