<?xml version="1.0" encoding="utf-8"?><!DOCTYPE svg PUBLIC "-//W3C//DTD SVG 1.1//EN" "http://www.w3.org/Graphics/SVG/1.1/DTD/svg11.dtd"><svg version="1.1" id="Layer_2" xmlns="http://www.w3.org/2000/svg" xmlns:xlink="http://www.w3.org/1999/xlink" x="0px" y="0px" width="136px" height="36px" viewBox="0 0 135.444 36.523" enable-background="new 0 0 135.444 36.523" xml:space="preserve"><g><polygon fill="#484949" stroke="#FFFFFF" stroke-miterlimit="10" points="134.944,0.5 0.5,0.5 0.5,22.81 59.473,22.81 66.822,35.524 74.173,22.81 134.944,22.81 "/><g><path fill="#FFFFFF" d="M10.691,6.466h1.807v8.391h4.3v1.555h-6.107V6.466z"/><path fill="#FFFFFF" d="M23.644,13.861h-3.488l-0.84,2.55h-1.863l3.502-9.945h1.891l3.502,9.945h-1.863L23.644,13.861z M21.893,8.188c0,0-0.224,0.98-0.42,1.541l-0.882,2.661h2.605l-0.883-2.661C22.13,9.169,21.92,8.188,21.92,8.188H21.893z"/><path fill="#FFFFFF" d="M27.756,6.466h5.715v1.555h-3.908v2.815h3.292v1.555h-3.292v4.021h-1.807V6.466z"/><path fill="#FFFFFF" d="M39.925,13.861h-3.488l-0.84,2.55h-1.863l3.502-9.945h1.891l3.502,9.945h-1.863L39.925,13.861z M38.174,8.188c0,0-0.224,0.98-0.42,1.541l-0.882,2.661h2.605l-0.883-2.661c-0.182-0.561-0.392-1.541-0.392-1.541H38.174z"/><path fill="#FFFFFF" d="M45.468,12.251l-3.306-5.785h2.045l1.555,2.928c0.322,0.616,0.588,1.345,0.603,1.33h0.028c0,0,0.28-0.714,0.603-1.33l1.541-2.928h2.045l-3.306,5.785v4.16h-1.807V12.251z"/><path fill="#FFFFFF" d="M52.004,6.466h5.953v1.555h-4.146v2.605h3.348v1.555h-3.348v2.676h4.37v1.555h-6.177V6.466z"/><path fill="#FFFFFF" d="M62.253,8.021H58.99V6.466h8.334v1.555h-3.264v8.391h-1.807V8.021z"/><path fill="#FFFFFF" d="M71.172,8.021h-3.264V6.466h8.334v1.555h-3.264v8.391h-1.807V8.021z"/><path fill="#FFFFFF" d="M77.694,6.466h5.953v1.555h-4.146v2.605h3.348v1.555h-3.348v2.676h4.37v1.555h-6.178V6.466z"/><path fill="#FFFFFF" d="M89.427,6.466h3.838c1.863,0,3.166,1.303,3.166,3.235c0,1.934-1.303,3.278-3.166,3.278h-2.031v3.432h-1.807V6.466z M92.929,11.41c1.05,0,1.667-0.672,1.667-1.709c0-1.022-0.617-1.681-1.64-1.681h-1.723v3.39H92.929z"/><path fill="#FFFFFF" d="M102.813,13.861h-3.488l-0.841,2.55h-1.862l3.502-9.945h1.891l3.502,9.945h-1.863L102.813,13.861z M101.062,8.188c0,0-0.225,0.98-0.421,1.541l-0.882,2.661h2.605l-0.883-2.661c-0.183-0.561-0.393-1.541-0.393-1.541H101.062z"/><path fill="#FFFFFF" d="M106.927,6.466h3.207c1.079,0,1.569,0.084,2.004,0.28c0.994,0.448,1.624,1.4,1.624,2.717c0,1.19-0.63,2.298-1.681,2.718v0.028c0,0,0.141,0.14,0.336,0.49l2.046,3.712h-2.018l-1.975-3.712h-1.737v3.712h-1.807V6.466z M110.358,11.13c0.967,0,1.568-0.574,1.568-1.568c0-0.953-0.406-1.541-1.82-1.541h-1.373v3.109H110.358z"/><path fill="#FFFFFF" d="M116.278,6.466h1.807v4.048h1.289l2.339-4.048h1.961l-2.815,4.734v0.028l2.983,5.183h-2.031l-2.437-4.343h-1.289v4.343h-1.807V6.466z"/></g></g></svg>