<?xml version="1.0" encoding="utf-8"?><!DOCTYPE svg PUBLIC "-//W3C//DTD SVG 1.1//EN" "http://www.w3.org/Graphics/SVG/1.1/DTD/svg11.dtd"><svg version="1.1" id="Layer_7" xmlns="http://www.w3.org/2000/svg" xmlns:xlink="http://www.w3.org/1999/xlink" x="0px" y="0px" width="136px" height="36px" viewBox="0 0 92.244 36.524" enable-background="new 0 0 92.244 36.524" xml:space="preserve"><g><polygon fill="#484949" stroke="#FFFFFF" stroke-miterlimit="10" points="91.744,0.5 0.5,0.5 0.5,22.811 38.774,22.811 46.124,35.525 53.474,22.811 91.744,22.811 "/><g><path fill="#FFFFFF" d="M12,6.469h1.933l1.947,4.916c0.224,0.588,0.504,1.457,0.504,1.457h0.028c0,0,0.266-0.869,0.49-1.457l1.947-4.916h1.933l0.798,9.945h-1.793l-0.42-5.562c-0.042-0.658-0.014-1.541-0.014-1.541h-0.028c0,0-0.294,0.967-0.532,1.541l-1.611,3.853H15.6l-1.597-3.853c-0.238-0.574-0.546-1.555-0.546-1.555h-0.028c0,0,0.028,0.896-0.014,1.555l-0.42,5.562h-1.807L12,6.469z"/><path fill="#FFFFFF" d="M23.927,6.469h1.807v9.945h-1.807V6.469z"/><path fill="#FFFFFF" d="M28.394,6.469h3.39c3.068,0,5.071,1.82,5.071,4.958s-2.003,4.987-5.071,4.987h-3.39V6.469z M31.685,14.859c2.017,0,3.306-1.191,3.306-3.433c0-2.213-1.317-3.403-3.306-3.403h-1.484v6.836H31.685z"/><path fill="#FFFFFF" d="M40.869,8.023h-3.264V6.469h8.335v1.555h-3.264v8.391h-1.807V8.023z"/><path fill="#FFFFFF" d="M51.762,6.301c2.928,0,5.141,2.227,5.141,5.07c0,2.928-2.213,5.211-5.141,5.211s-5.141-2.283-5.141-5.211C46.622,8.527,48.834,6.301,51.762,6.301z M51.762,14.929c1.82,0,3.277-1.513,3.277-3.558c0-1.961-1.457-3.418-3.277-3.418c-1.821,0-3.277,1.457-3.277,3.418C48.485,13.416,49.941,14.929,51.762,14.929z"/><path fill="#FFFFFF" d="M66.871,13.346c0.153,0.574,0.168,1.051,0.182,1.051h0.028c0,0,0.042-0.49,0.168-1.051l1.639-6.877h1.863l-2.563,9.945H66.1l-1.527-5.884c-0.168-0.644-0.252-1.303-0.252-1.303h-0.028c0,0-0.084,0.659-0.252,1.303l-1.526,5.884h-2.088l-2.493-9.945h1.863l1.568,6.877c0.127,0.561,0.169,1.051,0.169,1.051h0.027c0.015,0,0.028-0.477,0.183-1.051l1.793-6.877h1.568L66.871,13.346z"/><path fill="#FFFFFF" d="M72.494,6.469H74.3l3.769,5.742c0.378,0.574,0.826,1.541,0.826,1.541h0.027c0,0-0.098-0.952-0.098-1.541V6.469h1.793v9.945h-1.793l-3.768-5.729c-0.379-0.574-0.827-1.541-0.827-1.541h-0.027c0,0,0.098,0.952,0.098,1.541v5.729h-1.807V6.469z"/></g></g></svg>