<?xml version="1.0" encoding="utf-8"?><!DOCTYPE svg PUBLIC "-//W3C//DTD SVG 1.1//EN" "http://www.w3.org/Graphics/SVG/1.1/DTD/svg11.dtd"><svg version="1.1" id="Layer_5" xmlns="http://www.w3.org/2000/svg" xmlns:xlink="http://www.w3.org/1999/xlink" x="0px" y="0px" width="136px" height="36px" viewBox="0 0 112.746 36.524" enable-background="new 0 0 112.746 36.524" xml:space="preserve"><g><polygon fill="#484949" stroke="#FFFFFF" stroke-miterlimit="10" points="112.246,0.5 0.5,0.5 0.5,22.811 48.973,22.811 56.323,35.525 63.673,22.811 112.246,22.811 "/><g><path fill="#FFFFFF" d="M11.906,6.969h1.807l3.768,5.743c0.378,0.574,0.826,1.54,0.826,1.54h0.028c0,0-0.098-0.951-0.098-1.54V6.969h1.793v9.945h-1.793l-3.768-5.729c-0.378-0.574-0.827-1.541-0.827-1.541h-0.028c0,0,0.098,0.952,0.098,1.541v5.729h-1.807V6.969z"/><path fill="#FFFFFF" d="M22.686,6.969h5.953v1.555h-4.146v2.605h3.348v1.555h-3.348v2.676h4.37v1.555h-6.177V6.969z"/><path fill="#FFFFFF" d="M38.916,13.846c0.154,0.575,0.168,1.051,0.182,1.051h0.028c0,0,0.042-0.49,0.168-1.051l1.639-6.877h1.863l-2.563,9.945h-2.087l-1.527-5.883c-0.168-0.645-0.252-1.303-0.252-1.303h-0.028c0,0-0.084,0.658-0.252,1.303l-1.527,5.883h-2.087l-2.493-9.945h1.863l1.569,6.877c0.126,0.561,0.168,1.051,0.168,1.051h0.028c0.014,0,0.028-0.476,0.182-1.051l1.793-6.877h1.569L38.916,13.846z"/><path fill="#FFFFFF" d="M52.508,6.801c2.423,0,3.67,1.358,3.67,1.358L55.31,9.504c0,0-1.135-1.051-2.718-1.051c-2.101,0-3.333,1.569-3.333,3.418c0,1.891,1.274,3.559,3.348,3.559c1.723,0,2.886-1.262,2.886-1.262l0.952,1.303c0,0-1.373,1.611-3.908,1.611c-3.04,0-5.141-2.255-5.141-5.183C47.396,9.014,49.581,6.801,52.508,6.801z"/><path fill="#FFFFFF" d="M58.246,6.969h5.953v1.555h-4.146v2.605H63.4v1.555h-3.348v2.676h4.371v1.555h-6.178V6.969z"/><path fill="#FFFFFF" d="M66.436,6.969h1.807l3.769,5.743c0.378,0.574,0.826,1.54,0.826,1.54h0.027c0,0-0.098-0.951-0.098-1.54V6.969h1.793v9.945h-1.793L69,11.186c-0.379-0.574-0.827-1.541-0.827-1.541h-0.027c0,0,0.098,0.952,0.098,1.541v5.729h-1.807V6.969z"/><path fill="#FFFFFF" d="M79.275,8.523h-3.264V6.969h8.335v1.555h-3.264v8.391h-1.808V8.523z"/><path fill="#FFFFFF" d="M85.797,6.969h5.953v1.555h-4.146v2.605h3.348v1.555h-3.348v2.676h4.37v1.555h-6.178V6.969z"/><path fill="#FFFFFF" d="M93.988,6.969h3.207c1.079,0,1.569,0.084,2.004,0.28c0.994,0.448,1.624,1.4,1.624,2.718c0,1.189-0.63,2.297-1.681,2.717v0.028c0,0,0.141,0.14,0.336,0.49l2.046,3.712h-2.018l-1.975-3.712h-1.737v3.712h-1.807V6.969z M97.419,11.633c0.967,0,1.568-0.574,1.568-1.568c0-0.953-0.406-1.541-1.82-1.541h-1.373v3.109H97.419z"/></g></g></svg>