<?xml version="1.0" encoding="utf-8"?><!DOCTYPE svg PUBLIC "-//W3C//DTD SVG 1.1//EN" "http://www.w3.org/Graphics/SVG/1.1/DTD/svg11.dtd"><svg version="1.1" id="Layer_1" xmlns="http://www.w3.org/2000/svg" xmlns:xlink="http://www.w3.org/1999/xlink" x="0px" y="0px" width="136px" height="36px" viewBox="0 0 104.846 36.523" enable-background="new 0 0 104.846 36.523" xml:space="preserve"><g><polygon fill="#484949" stroke="#FFFFFF" stroke-miterlimit="10" points="104.346,0.5 0.5,0.5 0.5,22.81 45.073,22.81 52.423,35.524 59.773,22.81 104.346,22.81 "/><g><path fill="#FFFFFF" d="M11.194,6.466h3.208c1.079,0,1.569,0.084,2.003,0.28c0.994,0.448,1.625,1.4,1.625,2.717c0,1.19-0.63,2.298-1.681,2.718v0.028c0,0,0.14,0.14,0.336,0.49l2.045,3.712h-2.017l-1.975-3.712h-1.737v3.712h-1.807V6.466z M14.625,11.13c0.967,0,1.569-0.574,1.569-1.568c0-0.953-0.406-1.541-1.821-1.541h-1.373v3.109H14.625z"/><path fill="#FFFFFF" d="M20.546,6.466h1.807v9.945h-1.807V6.466z"/><path fill="#FFFFFF" d="M23.737,6.466h1.947l2.185,6.485c0.196,0.574,0.364,1.457,0.378,1.457h0.028c0.014,0,0.182-0.883,0.378-1.457l2.199-6.485h1.933l-3.628,9.945h-1.793L23.737,6.466z"/><path fill="#FFFFFF" d="M34.167,6.466h5.953v1.555h-4.146v2.605h3.348v1.555h-3.348v2.676h4.37v1.555h-6.177V6.466z"/><path fill="#FFFFFF" d="M42.357,6.466h3.208c1.079,0,1.569,0.084,2.003,0.28c0.994,0.448,1.625,1.4,1.625,2.717c0,1.19-0.63,2.298-1.681,2.718v0.028c0,0,0.14,0.14,0.336,0.49l2.045,3.712h-2.017l-1.975-3.712h-1.737v3.712h-1.807V6.466z M45.789,11.13c0.967,0,1.569-0.574,1.569-1.568c0-0.953-0.406-1.541-1.821-1.541h-1.373v3.109H45.789z"/><path fill="#FFFFFF" d="M53.769,8.021h-3.264V6.466h8.334v1.555h-3.264v8.391h-1.807V8.021z"/><path fill="#FFFFFF" d="M64.662,6.298c2.928,0,5.141,2.227,5.141,5.07c0,2.928-2.213,5.211-5.141,5.211s-5.141-2.283-5.141-5.211C59.521,8.524,61.734,6.298,64.662,6.298z M64.662,14.926c1.821,0,3.277-1.513,3.277-3.558c0-1.961-1.456-3.418-3.277-3.418s-3.277,1.457-3.277,3.418C61.385,13.413,62.841,14.926,64.662,14.926z"/><path fill="#FFFFFF" d="M79.77,13.343c0.154,0.575,0.169,1.051,0.183,1.051h0.028c0,0,0.042-0.49,0.168-1.051l1.639-6.877h1.863l-2.563,9.945H79l-1.527-5.884c-0.168-0.644-0.252-1.303-0.252-1.303h-0.028c0,0-0.084,0.659-0.252,1.303l-1.526,5.884h-2.088l-2.493-9.945h1.863l1.568,6.877c0.126,0.561,0.169,1.051,0.169,1.051h0.027c0.015,0,0.028-0.476,0.183-1.051l1.793-6.877h1.568L79.77,13.343z"/><path fill="#FFFFFF" d="M85.394,6.466H87.2l3.768,5.743c0.379,0.574,0.827,1.54,0.827,1.54h0.027c0,0-0.098-0.952-0.098-1.54V6.466h1.793v9.945h-1.793l-3.768-5.729c-0.379-0.574-0.827-1.541-0.827-1.541h-0.027c0,0,0.098,0.953,0.098,1.541v5.729h-1.807V6.466z"/></g></g></svg>