<?xml version="1.0" encoding="utf-8"?><!DOCTYPE svg PUBLIC "-//W3C//DTD SVG 1.1//EN" "http://www.w3.org/Graphics/SVG/1.1/DTD/svg11.dtd"><svg version="1.1" id="Layer_5" xmlns="http://www.w3.org/2000/svg" xmlns:xlink="http://www.w3.org/1999/xlink" x="0px" y="0px" width="136px" height="36px" viewBox="0 0 105.746 36.524" enable-background="new 0 0 105.746 36.524" xml:space="preserve"><g><polygon fill="#484949" stroke="#FFFFFF" stroke-miterlimit="10" points="105.246,0.5 0.5,0.5 0.5,22.811 45.973,22.811 53.323,35.525 60.673,22.811 105.246,22.811 "/><g><path fill="#FFFFFF" d="M15.599,8.523h-3.264V6.969h8.334v1.555h-3.264v8.391h-1.807V8.523z"/><path fill="#FFFFFF" d="M22.122,6.969h5.953v1.555h-4.146v2.605h3.348v1.555h-3.348v2.676h4.37v1.555h-6.177V6.969z"/><path fill="#FFFFFF" d="M34.682,6.801c2.423,0,3.67,1.358,3.67,1.358l-0.868,1.345c0,0-1.135-1.051-2.718-1.051c-2.101,0-3.333,1.569-3.333,3.418c0,1.891,1.274,3.559,3.348,3.559c1.723,0,2.886-1.262,2.886-1.262l0.952,1.303c0,0-1.373,1.611-3.908,1.611c-3.04,0-5.141-2.255-5.141-5.183C29.569,9.014,31.754,6.801,34.682,6.801z"/><path fill="#FFFFFF" d="M40.42,6.969h1.807v4.217h4.552V6.969h1.807v9.945h-1.807V12.74h-4.552v4.174H40.42V6.969z"/><path fill="#FFFFFF" d="M53.301,8.523h-3.264V6.969h8.334v1.555h-3.264v8.391h-1.807V8.523z"/><path fill="#FFFFFF" d="M64.195,6.801c2.927,0,5.141,2.227,5.141,5.07c0,2.928-2.214,5.211-5.141,5.211c-2.928,0-5.142-2.283-5.142-5.211C59.053,9.027,61.267,6.801,64.195,6.801z M64.195,15.43c1.82,0,3.277-1.514,3.277-3.559c0-1.961-1.457-3.418-3.277-3.418c-1.821,0-3.278,1.457-3.278,3.418C60.917,13.916,62.374,15.43,64.195,15.43z"/><path fill="#FFFFFF" d="M79.302,13.846c0.154,0.575,0.168,1.051,0.182,1.051h0.028c0,0,0.042-0.49,0.168-1.051l1.64-6.877h1.862l-2.563,9.945h-2.087l-1.526-5.883c-0.168-0.645-0.253-1.303-0.253-1.303h-0.027c0,0-0.084,0.658-0.252,1.303l-1.527,5.883h-2.087l-2.493-9.945h1.862l1.569,6.877c0.126,0.561,0.168,1.051,0.168,1.051h0.028c0.014,0,0.027-0.476,0.182-1.051l1.793-6.877h1.569L79.302,13.846z"/><path fill="#FFFFFF" d="M84.925,6.969h1.808l3.768,5.743c0.378,0.574,0.826,1.54,0.826,1.54h0.028c0,0-0.098-0.951-0.098-1.54V6.969h1.793v9.945h-1.793l-3.769-5.729c-0.378-0.574-0.826-1.541-0.826-1.541h-0.028c0,0,0.099,0.952,0.099,1.541v5.729h-1.808V6.969z"/></g></g></svg>