<?xml version="1.0" encoding="utf-8"?><!DOCTYPE svg PUBLIC "-//W3C//DTD SVG 1.1//EN" "http://www.w3.org/Graphics/SVG/1.1/DTD/svg11.dtd"><svg version="1.1" id="Layer_6" xmlns="http://www.w3.org/2000/svg" xmlns:xlink="http://www.w3.org/1999/xlink" x="0px" y="0px" width="136px" height="36px" viewBox="0 0 121.943 36.522" enable-background="new 0 0 121.943 36.522" xml:space="preserve"><g><polygon fill="#484949" stroke="#FFFFFF" stroke-miterlimit="10" points="121.443,0.5 0.5,0.5 0.5,22.809 53.174,22.809 60.524,35.523 67.875,22.809 121.443,22.809 "/><g><path fill="#FFFFFF" d="M20.007,13.344c0.154,0.575,0.168,1.051,0.182,1.051h0.028c0,0,0.042-0.49,0.168-1.051l1.639-6.877h1.863l-2.563,9.945h-2.087l-1.527-5.883c-0.168-0.645-0.252-1.303-0.252-1.303h-0.028c0,0-0.084,0.658-0.252,1.303l-1.527,5.883h-2.087L11.07,6.467h1.863l1.569,6.877c0.126,0.561,0.168,1.051,0.168,1.051h0.028c0.014,0,0.028-0.476,0.182-1.051l1.793-6.877h1.569L20.007,13.344z"/><path fill="#FFFFFF" d="M30.043,6.299c2.927,0,5.141,2.227,5.141,5.07c0,2.928-2.213,5.211-5.141,5.211c-2.928,0-5.141-2.283-5.141-5.211C24.902,8.525,27.115,6.299,30.043,6.299z M30.043,14.928c1.821,0,3.277-1.514,3.277-3.559c0-1.961-1.457-3.418-3.277-3.418c-1.821,0-3.278,1.457-3.278,3.418C26.765,13.414,28.222,14.928,30.043,14.928z"/><path fill="#FFFFFF" d="M41.606,6.299c2.928,0,5.141,2.227,5.141,5.07c0,2.928-2.213,5.211-5.141,5.211c-2.927,0-5.141-2.283-5.141-5.211C36.466,8.525,38.679,6.299,41.606,6.299z M41.606,14.928c1.821,0,3.278-1.514,3.278-3.559c0-1.961-1.457-3.418-3.278-3.418c-1.821,0-3.277,1.457-3.277,3.418C38.329,13.414,39.786,14.928,41.606,14.928z"/><path fill="#FFFFFF" d="M48.716,6.467h3.39c3.068,0,5.071,1.82,5.071,4.959c0,3.137-2.003,4.986-5.071,4.986h-3.39V6.467z M52.008,14.857c2.017,0,3.306-1.191,3.306-3.432c0-2.213-1.317-3.404-3.306-3.404h-1.484v6.836H52.008z"/><path fill="#FFFFFF" d="M59.202,6.467h3.558c1.793,0,3.067,0.924,3.067,2.563c0,0.925-0.448,1.723-1.204,2.129v0.028c1.092,0.322,1.61,1.33,1.61,2.339c0,1.989-1.597,2.886-3.432,2.886h-3.6V6.467z M62.76,10.529c0.784,0,1.232-0.561,1.232-1.275c0-0.714-0.42-1.232-1.261-1.232h-1.723v2.508H62.76z M62.942,14.857c0.925,0,1.443-0.603,1.443-1.443c0-0.826-0.533-1.428-1.443-1.428h-1.933v2.871H62.942z"/><path fill="#FFFFFF" d="M68.331,6.467h3.207c1.079,0,1.569,0.084,2.004,0.28c0.994,0.448,1.624,1.4,1.624,2.718c0,1.189-0.63,2.297-1.681,2.717v0.028c0,0,0.141,0.14,0.336,0.49l2.046,3.712h-2.018L71.875,12.7h-1.737v3.712h-1.807V6.467z M71.762,11.131c0.967,0,1.568-0.574,1.568-1.568c0-0.953-0.406-1.541-1.82-1.541h-1.373v3.109H71.762z"/><path fill="#FFFFFF" d="M77.682,6.467h1.808v9.945h-1.808V6.467z"/><path fill="#FFFFFF" d="M82.148,6.467h3.39c3.068,0,5.071,1.82,5.071,4.959c0,3.137-2.003,4.986-5.071,4.986h-3.39V6.467z M85.44,14.857c2.017,0,3.306-1.191,3.306-3.432c0-2.213-1.316-3.404-3.306-3.404h-1.484v6.836H85.44z"/><path fill="#FFFFFF" d="M97.088,6.299c2.438,0,3.698,1.261,3.698,1.261L99.89,8.904c0,0-1.064-0.953-2.647-0.953c-2.228,0-3.418,1.541-3.418,3.418c0,2.157,1.471,3.559,3.334,3.559c1.499,0,2.493-1.037,2.493-1.037v-1.162h-1.527v-1.555h3.152v5.238h-1.541v-0.477c0-0.21,0.014-0.42,0.014-0.42h-0.027c0,0-1.037,1.064-2.886,1.064c-2.619,0-4.875-2.031-4.875-5.154C91.961,8.54,94.132,6.299,97.088,6.299z"/><path fill="#FFFFFF" d="M103.414,6.467h5.953v1.555h-4.146v2.605h3.348v1.555h-3.348v2.676h4.37v1.555h-6.178V6.467z"/></g></g></svg>