<svg xmlns="http://www.w3.org/2000/svg" xmlns:xlink="http://www.w3.org/1999/xlink" version="1.1" x="0px" y="0px" width="300px" height="150px" viewBox="0 0 300 150" enable-background="new 0 0 300 150" xml:space="preserve"><polygon fill="#AFD5F1" points="101.864 65.387 101.864 93.592 127.629 79.509 "/><polygon fill="#2A316C" points="101.864 121.796 101.864 93.592 127.629 107.713 "/><polygon fill="#E0E060" points="101.864 150 127.629 135.918 101.864 121.796 "/><polygon fill="#AFD5F1" points="72.5 135.871 98.265 121.789 72.5 107.668 "/><polygon fill="#00B3EE" points="127.629 79.51 127.629 107.715 101.864 93.593 "/><polygon fill="#00A892" points="127.629 107.709 127.629 135.913 101.864 121.792 "/><polygon fill="#2A316C" points="72.5 107.674 98.265 121.796 98.265 93.592 "/><polygon fill="#00B3EE" points="72.5 135.878 98.265 150 98.265 121.796 "/><path fill="#2A316C" d="M136.657 103.662h2.833c0.686 0 1.337 0.076 1.955 0.229 0.617 0.153 1.156 0.401 1.616 0.745 0.46 0.343 0.825 0.789 1.095 1.338 0.271 0.549 0.406 1.215 0.406 1.996 0 0.694-0.131 1.306-0.394 1.834s-0.615 0.973-1.059 1.332c-0.444 0.358-0.956 0.631-1.537 0.816s-1.191 0.279-1.828 0.279h-3.087V103.662zM138.545 110.489h0.98c0.436 0 0.841-0.045 1.217-0.134 0.375-0.088 0.7-0.236 0.974-0.441 0.274-0.206 0.49-0.477 0.648-0.811 0.157-0.335 0.236-0.745 0.236-1.229 0-0.42-0.079-0.785-0.236-1.096 -0.158-0.311-0.369-0.567-0.636-0.77 -0.266-0.201-0.579-0.353-0.938-0.453 -0.359-0.102-0.736-0.152-1.132-0.152h-1.114V110.489z"/><path fill="#2A316C" d="M146.292 107.947c0-0.686 0.115-1.308 0.345-1.864 0.23-0.558 0.551-1.03 0.962-1.423 0.412-0.391 0.899-0.691 1.464-0.901 0.564-0.21 1.183-0.315 1.853-0.315s1.287 0.105 1.852 0.315 1.054 0.511 1.465 0.901c0.411 0.393 0.732 0.865 0.962 1.423 0.23 0.557 0.346 1.179 0.346 1.864s-0.115 1.308-0.346 1.864c-0.229 0.556-0.551 1.03-0.962 1.422s-0.9 0.692-1.465 0.901c-0.564 0.21-1.182 0.315-1.852 0.315s-1.288-0.105-1.853-0.315c-0.565-0.209-1.053-0.51-1.464-0.901s-0.732-0.866-0.962-1.422C146.407 109.255 146.292 108.633 146.292 107.947M148.253 107.947c0 0.403 0.062 0.772 0.188 1.107s0.304 0.625 0.539 0.872c0.234 0.245 0.515 0.437 0.841 0.574 0.327 0.138 0.691 0.205 1.096 0.205 0.403 0 0.769-0.067 1.095-0.205 0.327-0.138 0.607-0.329 0.842-0.574 0.233-0.247 0.414-0.537 0.538-0.872 0.125-0.335 0.188-0.704 0.188-1.107 0-0.396-0.063-0.764-0.188-1.102 -0.124-0.339-0.305-0.631-0.538-0.878 -0.234-0.246-0.515-0.438-0.842-0.575 -0.326-0.137-0.691-0.205-1.095-0.205 -0.404 0-0.769 0.068-1.096 0.205 -0.327 0.138-0.607 0.329-0.841 0.575 -0.234 0.247-0.414 0.539-0.539 0.878C148.315 107.184 148.253 107.552 148.253 107.947"/><polygon fill="#2A316C" points="156.835 103.662 158.893 103.662 160.26 109.157 160.285 109.157 162.076 103.662 163.831 103.662 165.61 109.303 165.635 109.303 167.075 103.662 168.987 103.662 166.481 112.232 164.799 112.232 162.911 106.301 162.887 106.301 160.998 112.232 159.377 112.232 "/><polygon fill="#2A316C" points="170.743 103.662 173.309 103.662 176.952 109.617 176.977 109.617 176.977 103.662 178.864 103.662 178.864 112.232 176.396 112.232 172.655 106.131 172.631 106.131 172.631 112.232 170.743 112.232 "/><polygon fill="#2A316C" points="183.174 105.332 180.729 105.332 180.729 103.662 187.507 103.662 187.507 105.332 185.062 105.332 185.062 112.231 183.174 112.231 "/><path fill="#2A316C" d="M188.669 107.947c0-0.686 0.115-1.308 0.345-1.864 0.23-0.558 0.551-1.03 0.963-1.423 0.411-0.391 0.899-0.691 1.464-0.901 0.565-0.21 1.183-0.315 1.853-0.315s1.287 0.105 1.852 0.315 1.054 0.511 1.465 0.901c0.412 0.393 0.732 0.865 0.962 1.423 0.23 0.557 0.346 1.179 0.346 1.864s-0.115 1.308-0.346 1.864c-0.229 0.556-0.55 1.03-0.962 1.422 -0.411 0.392-0.9 0.692-1.465 0.901 -0.564 0.21-1.182 0.315-1.852 0.315s-1.287-0.105-1.853-0.315c-0.564-0.209-1.053-0.51-1.464-0.901 -0.412-0.392-0.732-0.866-0.963-1.422C188.784 109.255 188.669 108.633 188.669 107.947M190.63 107.947c0 0.403 0.062 0.772 0.188 1.107s0.305 0.625 0.539 0.872c0.233 0.245 0.514 0.437 0.841 0.574s0.692 0.205 1.096 0.205 0.769-0.067 1.096-0.205c0.326-0.138 0.606-0.329 0.841-0.574 0.234-0.247 0.414-0.537 0.538-0.872 0.125-0.335 0.188-0.704 0.188-1.107 0-0.396-0.063-0.764-0.188-1.102 -0.124-0.339-0.304-0.631-0.538-0.878 -0.234-0.246-0.515-0.438-0.841-0.575 -0.327-0.137-0.692-0.205-1.096-0.205s-0.769 0.068-1.096 0.205c-0.327 0.138-0.607 0.329-0.841 0.575 -0.234 0.247-0.414 0.539-0.539 0.878C190.692 107.184 190.63 107.552 190.63 107.947"/><polygon fill="#2A316C" points="199.212 103.662 201.27 103.662 202.637 109.157 202.662 109.157 204.453 103.662 206.208 103.662 207.987 109.303 208.012 109.303 209.452 103.662 211.364 103.662 208.858 112.232 207.176 112.232 205.288 106.301 205.264 106.301 203.376 112.232 201.754 112.232 "/><polygon fill="#2A316C" points="213.12 103.662 215.686 103.662 219.329 109.617 219.354 109.617 219.354 103.662 221.241 103.662 221.241 112.232 218.772 112.232 215.032 106.131 215.008 106.131 215.008 112.232 213.12 112.232 "/><path fill="#2A316C" d="M136.657 115.514h2.833c0.686 0 1.337 0.077 1.955 0.23 0.617 0.153 1.156 0.401 1.616 0.745 0.46 0.343 0.825 0.788 1.095 1.337 0.271 0.549 0.406 1.215 0.406 1.997 0 0.694-0.131 1.306-0.394 1.834s-0.615 0.973-1.059 1.332c-0.444 0.358-0.956 0.631-1.537 0.816s-1.191 0.278-1.828 0.278h-3.087V115.514zM138.545 122.341h0.98c0.436 0 0.841-0.044 1.217-0.133 0.375-0.089 0.7-0.236 0.974-0.442 0.274-0.205 0.49-0.476 0.648-0.811 0.157-0.335 0.236-0.744 0.236-1.229 0-0.42-0.079-0.784-0.236-1.096 -0.158-0.311-0.369-0.567-0.636-0.769 -0.266-0.201-0.579-0.353-0.938-0.454 -0.359-0.101-0.736-0.15-1.132-0.15h-1.114V122.341z"/><polygon fill="#2A316C" points="146.825 115.514 152.646 115.514 152.646 117.258 148.713 117.258 148.713 118.855 152.429 118.855 152.429 120.598 148.713 120.598 148.713 122.342 152.865 122.342 152.865 124.084 146.825 124.084 "/><polygon fill="#2A316C" points="156.943 117.185 154.498 117.185 154.498 115.514 161.277 115.514 161.277 117.185 158.832 117.185 158.832 124.084 156.943 124.084 "/><path fill="#2A316C" d="M163.141 115.514h3.317c0.436 0 0.849 0.043 1.24 0.127 0.392 0.085 0.734 0.227 1.029 0.425 0.294 0.197 0.527 0.464 0.702 0.799 0.173 0.335 0.26 0.752 0.26 1.252 0 0.605-0.157 1.12-0.472 1.544 -0.315 0.424-0.775 0.692-1.38 0.805l2.179 3.619h-2.264l-1.792-3.426h-0.932v3.426h-1.889V115.514zM165.029 119.061h1.113c0.17 0 0.35-0.006 0.539-0.019 0.189-0.012 0.361-0.048 0.515-0.108 0.152-0.061 0.279-0.155 0.381-0.284s0.151-0.311 0.151-0.545c0-0.218-0.044-0.392-0.133-0.521s-0.202-0.228-0.339-0.296c-0.138-0.069-0.295-0.115-0.473-0.14s-0.351-0.037-0.521-0.037h-1.234V119.061z"/><path fill="#2A316C" d="M171.433 119.799c0-0.686 0.115-1.307 0.345-1.864 0.229-0.557 0.551-1.03 0.963-1.422 0.411-0.392 0.898-0.691 1.464-0.901s1.183-0.315 1.853-0.315c0.669 0 1.287 0.105 1.852 0.315s1.054 0.51 1.465 0.901 0.732 0.865 0.962 1.422c0.23 0.558 0.345 1.179 0.345 1.864s-0.114 1.308-0.345 1.864c-0.229 0.557-0.551 1.031-0.962 1.422 -0.411 0.392-0.9 0.692-1.465 0.902s-1.183 0.315-1.852 0.315c-0.67 0-1.287-0.105-1.853-0.315s-1.053-0.511-1.464-0.902c-0.412-0.391-0.733-0.865-0.963-1.422S171.433 120.484 171.433 119.799M173.394 119.799c0 0.403 0.062 0.773 0.188 1.108 0.125 0.334 0.305 0.625 0.538 0.871 0.234 0.246 0.515 0.438 0.842 0.575s0.691 0.205 1.096 0.205c0.403 0 0.769-0.067 1.096-0.205 0.326-0.138 0.606-0.329 0.841-0.575 0.233-0.246 0.413-0.537 0.538-0.871 0.125-0.335 0.188-0.705 0.188-1.108 0-0.396-0.063-0.763-0.188-1.101 -0.125-0.34-0.305-0.632-0.538-0.878 -0.234-0.246-0.515-0.438-0.841-0.575 -0.327-0.138-0.692-0.206-1.096-0.206 -0.404 0-0.769 0.068-1.096 0.206s-0.607 0.329-0.842 0.575c-0.233 0.246-0.413 0.538-0.538 0.878C173.456 119.036 173.394 119.403 173.394 119.799"/><rect x="182.846" y="115.514" fill="#2A316C" width="1.889" height="8.57"/><polygon fill="#2A316C" points="189.021 117.185 186.575 117.185 186.575 115.514 193.354 115.514 193.354 117.185 190.908 117.185 190.908 124.084 189.021 124.084 "/><path fill="#2A316C" d="M136.657 127.366h3.184c0.443 0 0.863 0.041 1.259 0.121 0.395 0.081 0.741 0.221 1.035 0.418s0.528 0.464 0.702 0.799c0.174 0.335 0.26 0.757 0.26 1.265 0 0.501-0.081 0.92-0.242 1.259 -0.162 0.339-0.383 0.609-0.666 0.812 -0.282 0.201-0.617 0.345-1.004 0.429 -0.388 0.085-0.807 0.128-1.259 0.128h-1.38v3.341h-1.888V127.366zM138.545 130.997h1.259c0.17 0 0.333-0.016 0.49-0.048 0.158-0.032 0.299-0.086 0.424-0.164 0.125-0.076 0.226-0.181 0.303-0.313 0.077-0.134 0.115-0.301 0.115-0.503 0-0.218-0.05-0.394-0.151-0.526 -0.101-0.133-0.23-0.235-0.388-0.309 -0.157-0.073-0.333-0.119-0.526-0.14 -0.194-0.02-0.379-0.03-0.557-0.03h-0.969V130.997z"/><path fill="#2A316C" d="M147.115 127.366h1.562l3.728 8.57h-2.13l-0.738-1.815h-3.329l-0.714 1.815h-2.082L147.115 127.366zM147.841 129.859l-1.041 2.664h2.094L147.841 129.859z"/><path fill="#2A316C" d="M154.172 127.366h3.316c0.437 0 0.85 0.042 1.241 0.127s0.734 0.227 1.029 0.425c0.294 0.197 0.527 0.464 0.701 0.799s0.261 0.752 0.261 1.252c0 0.605-0.157 1.119-0.472 1.543 -0.315 0.424-0.775 0.692-1.381 0.806l2.18 3.619h-2.264l-1.792-3.426h-0.932v3.426h-1.889V127.366zM156.061 130.913h1.113c0.17 0 0.349-0.006 0.539-0.019 0.189-0.012 0.36-0.048 0.514-0.109 0.153-0.06 0.28-0.155 0.382-0.284 0.101-0.128 0.151-0.31 0.151-0.544 0-0.218-0.045-0.392-0.133-0.521 -0.09-0.129-0.202-0.228-0.339-0.297 -0.138-0.068-0.295-0.114-0.473-0.139s-0.351-0.037-0.521-0.037h-1.234V130.913z"/><polygon fill="#2A316C" points="164.364 129.037 161.919 129.037 161.919 127.366 168.697 127.366 168.697 129.037 166.252 129.037 166.252 135.937 164.364 135.937 "/><polygon fill="#2A316C" points="170.562 127.366 173.127 127.366 176.771 133.322 176.795 133.322 176.795 127.366 178.683 127.366 178.683 135.937 176.214 135.937 172.474 129.836 172.449 129.836 172.449 135.937 170.562 135.937 "/><polygon fill="#2A316C" points="181.406 127.366 187.229 127.366 187.229 129.109 183.295 129.109 183.295 130.707 187.011 130.707 187.011 132.45 183.295 132.45 183.295 134.193 187.447 134.193 187.447 135.937 181.406 135.937 "/><path fill="#2A316C" d="M189.868 127.366h3.316c0.436 0 0.849 0.042 1.24 0.127s0.734 0.227 1.029 0.425c0.294 0.197 0.528 0.464 0.702 0.799 0.173 0.335 0.26 0.752 0.26 1.252 0 0.605-0.157 1.119-0.472 1.543 -0.315 0.424-0.775 0.692-1.38 0.806l2.179 3.619h-2.264l-1.792-3.426h-0.932v3.426h-1.888V127.366zM191.756 130.913h1.113c0.17 0 0.35-0.006 0.539-0.019 0.189-0.012 0.361-0.048 0.515-0.109 0.152-0.06 0.28-0.155 0.381-0.284 0.102-0.128 0.151-0.31 0.151-0.544 0-0.218-0.044-0.392-0.133-0.521s-0.202-0.228-0.339-0.297c-0.138-0.068-0.295-0.114-0.473-0.139s-0.351-0.037-0.521-0.037h-1.234V130.913z"/><path fill="#2A316C" d="M202.855 129.46c-0.153-0.193-0.361-0.337-0.623-0.429 -0.263-0.093-0.511-0.14-0.744-0.14 -0.138 0-0.279 0.017-0.424 0.049 -0.146 0.032-0.283 0.082-0.412 0.15s-0.234 0.16-0.314 0.273c-0.081 0.112-0.121 0.249-0.121 0.411 0 0.258 0.097 0.456 0.291 0.593 0.193 0.138 0.437 0.254 0.731 0.352 0.295 0.097 0.611 0.193 0.95 0.29s0.656 0.234 0.95 0.411c0.295 0.178 0.539 0.416 0.732 0.715 0.194 0.299 0.291 0.698 0.291 1.198 0 0.477-0.089 0.892-0.267 1.247 -0.178 0.354-0.418 0.649-0.72 0.883 -0.303 0.234-0.654 0.408-1.054 0.521 -0.399 0.113-0.821 0.17-1.265 0.17 -0.558 0-1.073-0.085-1.55-0.255 -0.476-0.169-0.92-0.443-1.331-0.822l1.343-1.477c0.194 0.258 0.438 0.458 0.733 0.599 0.294 0.142 0.599 0.212 0.914 0.212 0.152 0 0.309-0.018 0.466-0.055 0.156-0.036 0.298-0.091 0.423-0.163 0.125-0.073 0.227-0.166 0.303-0.278 0.076-0.113 0.115-0.246 0.115-0.399 0-0.259-0.099-0.462-0.296-0.611 -0.198-0.149-0.446-0.276-0.745-0.382 -0.299-0.104-0.621-0.209-0.968-0.314 -0.348-0.104-0.67-0.246-0.969-0.424 -0.299-0.177-0.547-0.411-0.744-0.702 -0.198-0.29-0.297-0.674-0.297-1.149 0-0.46 0.091-0.863 0.272-1.21 0.182-0.348 0.424-0.638 0.727-0.872 0.302-0.233 0.651-0.409 1.046-0.526 0.396-0.117 0.804-0.176 1.224-0.176 0.483 0 0.952 0.068 1.404 0.206 0.451 0.138 0.858 0.367 1.222 0.689L202.855 129.46z"/><polygon fill="#2A316C" points="206.475 127.366 208.363 127.366 208.363 130.562 212.03 130.562 212.03 127.366 213.919 127.366 213.919 135.937 212.03 135.937 212.03 132.232 208.363 132.232 208.363 135.937 206.475 135.937 "/><rect x="216.545" y="127.366" fill="#2A316C" width="1.889" height="8.57"/><path fill="#2A316C" d="M221.061 127.366h3.184c0.443 0 0.863 0.041 1.259 0.121 0.395 0.081 0.74 0.221 1.034 0.418 0.295 0.197 0.529 0.464 0.702 0.799 0.174 0.335 0.261 0.757 0.261 1.265 0 0.501-0.081 0.92-0.242 1.259s-0.383 0.609-0.666 0.812c-0.282 0.201-0.617 0.345-1.005 0.429 -0.387 0.085-0.807 0.128-1.259 0.128h-1.38v3.341h-1.888V127.366zM222.948 130.997h1.26c0.169 0 0.332-0.016 0.49-0.048 0.157-0.032 0.298-0.086 0.423-0.164 0.125-0.076 0.227-0.181 0.303-0.313 0.077-0.134 0.115-0.301 0.115-0.503 0-0.218-0.051-0.394-0.151-0.526s-0.23-0.235-0.388-0.309 -0.333-0.119-0.526-0.14c-0.193-0.02-0.379-0.03-0.557-0.03h-0.969V130.997z"/></svg>