<svg xmlns="http://www.w3.org/2000/svg" xmlns:xlink="http://www.w3.org/1999/xlink" version="1.1" x="0px" y="0px" width="24px" height="19.504px" viewBox="0 0 24 19.504" enable-background="new 0 0 24 19.504" xml:space="preserve"><path fill="#5FA9DD" d="M24 2.309c-0.883 0.392-1.832 0.656-2.828 0.775 1.017-0.609 1.797-1.574 2.165-2.725 -0.951 0.564-2.005 0.975-3.127 1.195C19.312 0.598 18.032 0 16.616 0c-2.72 0-4.924 2.204-4.924 4.924 0 0.386 0.043 0.762 0.127 1.122C7.728 5.84 4.1 3.88 1.671 0.9 1.247 1.628 1.004 2.474 1.004 3.376c0 1.709 0.869 3.216 2.19 4.099C2.388 7.449 1.628 7.228 0.965 6.858 0.964 6.879 0.964 6.9 0.964 6.921c0 2.386 1.697 4.376 3.95 4.828 -0.413 0.112-0.849 0.173-1.298 0.173 -0.317 0-0.625-0.031-0.926-0.089 0.626 1.956 2.444 3.38 4.6 3.42 -1.686 1.32-3.809 2.107-6.115 2.107 -0.397 0-0.79-0.023-1.175-0.068 2.179 1.396 4.768 2.212 7.548 2.212 9.057 0 14.01-7.503 14.01-14.01 0-0.213-0.005-0.426-0.015-0.637C22.505 4.163 23.34 3.296 24 2.309z"/></svg>