<svg xmlns="http://www.w3.org/2000/svg" xmlns:xlink="http://www.w3.org/1999/xlink" version="1.1" x="0px" y="0px" width="24px" height="24px" viewBox="0 0 24 24" enable-background="new 0 0 24 24" xml:space="preserve"><path fill="#3C5A9A" d="M22.676 0H1.325C0.593 0 0 0.593 0 1.324v21.352C0 23.407 0.593 24 1.325 24h11.495v-9.294H9.691v-3.622h3.128V8.413c0-3.101 1.894-4.788 4.658-4.788 1.325 0 2.463 0.099 2.795 0.143v3.239l-1.918 0.001c-1.504 0-1.795 0.715-1.795 1.764v2.312h3.587l-0.467 3.622h-3.12V24h6.116C23.407 24 24 23.407 24 22.676V1.324C24 0.593 23.407 0 22.676 0z"/></svg>