<svg xmlns="http://www.w3.org/2000/svg" xmlns:xlink="http://www.w3.org/1999/xlink" version="1.1" x="0px" y="0px" width="24px" height="24px" viewBox="0 0 24 24" enable-background="new 0 0 24 24" xml:space="preserve"><path d="M0 21.562c0-6.375 0-12.75 0-19.125 0.016-0.052 0.035-0.103 0.047-0.155 0.25-1.164 0.951-1.897 2.099-2.208C2.242 0.048 2.34 0.024 2.438 0c6.375 0 12.75 0 19.125 0 0.043 0.015 0.086 0.035 0.131 0.044 1.178 0.24 1.917 0.944 2.231 2.102C23.951 2.242 23.975 2.34 24 2.438c0 6.375 0 12.75 0 19.125 -0.016 0.052-0.037 0.103-0.047 0.155 -0.205 1.114-1.046 1.984-2.144 2.222 -0.083 0.018-0.165 0.04-0.247 0.061 -6.375 0-12.75 0-19.125 0 -0.044-0.015-0.086-0.036-0.131-0.044 -1.127-0.203-1.982-1.015-2.239-2.124C0.047 21.742 0.022 21.652 0 21.562zM2.775 10.164c-0.004 0.082-0.01 0.143-0.01 0.204 -0.001 3.296-0.002 6.592 0 9.889 0 0.598 0.396 0.978 1.016 0.978 5.476 0.001 10.951 0.001 16.427 0 0.652 0 1.026-0.38 1.026-1.038 0.001-3.257 0-6.514 0-9.771 0-0.083 0-0.166 0-0.257 -0.706 0-1.382 0-2.078 0 0.516 2.281 0.152 4.386-1.253 6.25 -1.407 1.867-3.31 2.861-5.653 2.951 -1.961 0.075-3.705-0.538-5.15-1.86 -2.176-1.988-2.864-4.471-2.268-7.345C4.143 10.164 3.473 10.164 2.775 10.164zM16.617 12.009c0.01-2.547-2.06-4.622-4.614-4.626 -2.542-0.004-4.597 2.041-4.62 4.597 -0.022 2.541 2.041 4.62 4.602 4.637C14.529 16.632 16.605 14.567 16.617 12.009zM18.939 2.764c-0.444 0-0.89-0.003-1.335 0.001 -0.591 0.004-0.981 0.368-0.99 0.954 -0.013 0.905-0.013 1.812 0.001 2.717 0.008 0.569 0.377 0.94 0.945 0.949 0.905 0.014 1.812 0.013 2.717 0.001 0.587-0.008 0.955-0.4 0.957-0.987 0.002-0.882 0.002-1.765 0-2.647 -0.002-0.592-0.389-0.98-0.982-0.986C19.814 2.761 19.377 2.764 18.939 2.764z"/></svg>