<svg xmlns="http://www.w3.org/2000/svg" xmlns:xlink="http://www.w3.org/1999/xlink" version="1.1" x="0px" y="0px" width="155px" height="84.613px" viewBox="0 0 155 84.613" enable-background="new 0 0 155 84.613" xml:space="preserve"><polygon fill="#AFD5F1" points="29.364 0 29.364 28.205 55.129 14.122 "/><polygon fill="#2A316C" points="29.364 56.409 29.364 28.204 55.129 42.326 "/><polygon fill="#E0E060" points="29.364 84.613 55.129 70.531 29.364 56.409 "/><polygon fill="#AFD5F1" points="0 70.484 25.765 56.402 0 42.28 "/><polygon fill="#00B3EE" points="55.129 14.123 55.129 42.328 29.364 28.206 "/><polygon fill="#00A892" points="55.129 42.322 55.129 70.526 29.364 56.405 "/><polygon fill="#2A316C" points="0 42.287 25.765 56.409 25.765 28.205 "/><polygon fill="#00B3EE" points="0 70.491 25.765 84.613 25.765 56.409 "/><path fill="#2A316C" d="M64.157 38.275h2.833c0.686 0 1.337 0.077 1.955 0.229 0.617 0.154 1.156 0.402 1.616 0.745 0.46 0.343 0.825 0.789 1.095 1.338 0.271 0.549 0.406 1.215 0.406 1.997 0 0.694-0.131 1.305-0.394 1.833s-0.615 0.973-1.059 1.332c-0.444 0.358-0.956 0.631-1.537 0.816s-1.191 0.279-1.828 0.279h-3.087V38.275zM66.045 45.102h0.98c0.436 0 0.841-0.045 1.217-0.134 0.375-0.088 0.7-0.236 0.974-0.441 0.274-0.206 0.49-0.477 0.648-0.811 0.157-0.335 0.236-0.745 0.236-1.229 0-0.419-0.079-0.785-0.236-1.096 -0.158-0.311-0.369-0.567-0.636-0.769 -0.266-0.202-0.579-0.353-0.938-0.454 -0.359-0.101-0.736-0.152-1.132-0.152h-1.114V45.102z"/><path fill="#2A316C" d="M73.792 42.56c0-0.686 0.115-1.307 0.345-1.864 0.23-0.557 0.551-1.031 0.962-1.422s0.899-0.692 1.464-0.902c0.564-0.21 1.183-0.315 1.853-0.315s1.287 0.105 1.852 0.315 1.054 0.51 1.465 0.902 0.732 0.865 0.962 1.422c0.23 0.557 0.346 1.178 0.346 1.864 0 0.686-0.115 1.308-0.346 1.865 -0.229 0.556-0.551 1.03-0.962 1.422s-0.9 0.692-1.465 0.901c-0.564 0.21-1.182 0.315-1.852 0.315s-1.288-0.105-1.853-0.315c-0.565-0.209-1.053-0.51-1.464-0.901s-0.732-0.866-0.962-1.422C73.907 43.868 73.792 43.246 73.792 42.56M75.753 42.56c0 0.404 0.062 0.773 0.188 1.108s0.304 0.625 0.539 0.872c0.234 0.245 0.515 0.437 0.841 0.574 0.327 0.138 0.691 0.205 1.096 0.205 0.403 0 0.769-0.067 1.095-0.205 0.327-0.138 0.607-0.329 0.842-0.574 0.233-0.247 0.414-0.537 0.538-0.872 0.125-0.335 0.188-0.704 0.188-1.108 0-0.395-0.063-0.763-0.188-1.101 -0.124-0.339-0.305-0.631-0.538-0.878 -0.234-0.246-0.515-0.438-0.842-0.575 -0.326-0.137-0.691-0.206-1.095-0.206 -0.404 0-0.769 0.069-1.096 0.206 -0.327 0.138-0.607 0.329-0.841 0.575 -0.234 0.247-0.414 0.539-0.539 0.878C75.815 41.797 75.753 42.165 75.753 42.56"/><polygon fill="#2A316C" points="84.335 38.275 86.393 38.275 87.76 43.77 87.785 43.77 89.576 38.275 91.331 38.275 93.11 43.916 93.135 43.916 94.575 38.275 96.487 38.275 93.981 46.845 92.299 46.845 90.411 40.914 90.387 40.914 88.498 46.845 86.877 46.845 "/><polygon fill="#2A316C" points="98.243 38.275 100.809 38.275 104.452 44.23 104.477 44.23 104.477 38.275 106.364 38.275 106.364 46.845 103.896 46.845 100.155 40.744 100.131 40.744 100.131 46.845 98.243 46.845 "/><polygon fill="#2A316C" points="110.674 39.945 108.229 39.945 108.229 38.275 115.007 38.275 115.007 39.945 112.562 39.945 112.562 46.844 110.674 46.844 "/><path fill="#2A316C" d="M116.169 42.56c0-0.686 0.115-1.307 0.345-1.864 0.23-0.557 0.551-1.031 0.963-1.422 0.411-0.392 0.899-0.692 1.464-0.902 0.565-0.21 1.183-0.315 1.853-0.315s1.287 0.105 1.852 0.315 1.054 0.51 1.465 0.902c0.412 0.392 0.732 0.865 0.962 1.422 0.23 0.557 0.346 1.178 0.346 1.864 0 0.686-0.115 1.308-0.346 1.865 -0.229 0.556-0.55 1.03-0.962 1.422 -0.411 0.392-0.9 0.692-1.465 0.901 -0.564 0.21-1.182 0.315-1.852 0.315s-1.287-0.105-1.853-0.315c-0.564-0.209-1.053-0.51-1.464-0.901 -0.412-0.392-0.732-0.866-0.963-1.422C116.284 43.868 116.169 43.246 116.169 42.56M118.13 42.56c0 0.404 0.062 0.773 0.188 1.108s0.305 0.625 0.539 0.872c0.233 0.245 0.514 0.437 0.841 0.574s0.692 0.205 1.096 0.205 0.769-0.067 1.096-0.205c0.326-0.138 0.606-0.329 0.841-0.574 0.234-0.247 0.414-0.537 0.538-0.872 0.125-0.335 0.188-0.704 0.188-1.108 0-0.395-0.063-0.763-0.188-1.101 -0.124-0.339-0.304-0.631-0.538-0.878 -0.234-0.246-0.515-0.438-0.841-0.575 -0.327-0.137-0.692-0.206-1.096-0.206s-0.769 0.069-1.096 0.206c-0.327 0.138-0.607 0.329-0.841 0.575 -0.234 0.247-0.414 0.539-0.539 0.878C118.192 41.797 118.13 42.165 118.13 42.56"/><polygon fill="#2A316C" points="126.712 38.275 128.77 38.275 130.137 43.77 130.162 43.77 131.953 38.275 133.708 38.275 135.487 43.916 135.512 43.916 136.952 38.275 138.864 38.275 136.358 46.845 134.676 46.845 132.788 40.914 132.764 40.914 130.876 46.845 129.254 46.845 "/><polygon fill="#2A316C" points="140.62 38.275 143.186 38.275 146.829 44.23 146.854 44.23 146.854 38.275 148.741 38.275 148.741 46.845 146.272 46.845 142.532 40.744 142.508 40.744 142.508 46.845 140.62 46.845 "/><path fill="#2A316C" d="M64.157 50.126h2.833c0.686 0 1.337 0.077 1.955 0.23 0.617 0.153 1.156 0.401 1.616 0.745 0.46 0.343 0.825 0.788 1.095 1.337 0.271 0.549 0.406 1.215 0.406 1.997 0 0.694-0.131 1.306-0.394 1.834s-0.615 0.973-1.059 1.332c-0.444 0.358-0.956 0.631-1.537 0.816s-1.191 0.278-1.828 0.278h-3.087V50.126zM66.045 56.954h0.98c0.436 0 0.841-0.044 1.217-0.133 0.375-0.089 0.7-0.236 0.974-0.442 0.274-0.205 0.49-0.476 0.648-0.811 0.157-0.335 0.236-0.744 0.236-1.229 0-0.42-0.079-0.784-0.236-1.096 -0.158-0.311-0.369-0.567-0.636-0.769 -0.266-0.201-0.579-0.353-0.938-0.454 -0.359-0.101-0.736-0.15-1.132-0.15h-1.114V56.954z"/><polygon fill="#2A316C" points="74.325 50.126 80.146 50.126 80.146 51.871 76.213 51.871 76.213 53.468 79.929 53.468 79.929 55.21 76.213 55.21 76.213 56.955 80.365 56.955 80.365 58.697 74.325 58.697 "/><polygon fill="#2A316C" points="84.443 51.797 81.998 51.797 81.998 50.126 88.777 50.126 88.777 51.797 86.332 51.797 86.332 58.697 84.443 58.697 "/><path fill="#2A316C" d="M90.641 50.126h3.317c0.436 0 0.849 0.043 1.24 0.127 0.392 0.085 0.734 0.227 1.029 0.425 0.294 0.197 0.527 0.464 0.702 0.799 0.173 0.335 0.26 0.752 0.26 1.252 0 0.605-0.157 1.12-0.472 1.544 -0.315 0.424-0.775 0.692-1.38 0.805l2.179 3.619h-2.264l-1.792-3.426h-0.932v3.426h-1.889V50.126zM92.529 53.673h1.113c0.17 0 0.35-0.006 0.539-0.019 0.189-0.012 0.361-0.048 0.515-0.108 0.152-0.061 0.279-0.155 0.381-0.284s0.151-0.311 0.151-0.545c0-0.218-0.044-0.392-0.133-0.521s-0.202-0.228-0.339-0.296c-0.138-0.069-0.295-0.115-0.473-0.14s-0.351-0.037-0.521-0.037h-1.234V53.673z"/><path fill="#2A316C" d="M98.933 54.412c0-0.686 0.115-1.307 0.345-1.864 0.229-0.557 0.551-1.03 0.963-1.422 0.411-0.392 0.898-0.691 1.464-0.901s1.183-0.315 1.853-0.315c0.669 0 1.287 0.105 1.852 0.315s1.054 0.51 1.465 0.901 0.732 0.865 0.962 1.422c0.23 0.558 0.345 1.179 0.345 1.864s-0.114 1.308-0.345 1.864c-0.229 0.557-0.551 1.031-0.962 1.422 -0.411 0.392-0.9 0.692-1.465 0.902s-1.183 0.315-1.852 0.315c-0.67 0-1.287-0.105-1.853-0.315s-1.053-0.511-1.464-0.902c-0.412-0.391-0.733-0.865-0.963-1.422S98.933 55.097 98.933 54.412M100.894 54.412c0 0.403 0.062 0.773 0.188 1.108 0.125 0.334 0.305 0.625 0.538 0.871 0.234 0.246 0.515 0.438 0.842 0.575s0.691 0.205 1.096 0.205c0.403 0 0.769-0.067 1.096-0.205 0.326-0.138 0.606-0.329 0.841-0.575 0.233-0.246 0.413-0.537 0.538-0.871 0.125-0.335 0.188-0.705 0.188-1.108 0-0.396-0.063-0.763-0.188-1.101 -0.125-0.34-0.305-0.632-0.538-0.878 -0.234-0.246-0.515-0.438-0.841-0.575 -0.327-0.138-0.692-0.206-1.096-0.206 -0.404 0-0.769 0.068-1.096 0.206s-0.607 0.329-0.842 0.575c-0.233 0.246-0.413 0.538-0.538 0.878C100.956 53.649 100.894 54.016 100.894 54.412"/><rect x="110.346" y="50.126" fill="#2A316C" width="1.889" height="8.57"/><polygon fill="#2A316C" points="116.521 51.797 114.075 51.797 114.075 50.126 120.854 50.126 120.854 51.797 118.408 51.797 118.408 58.697 116.521 58.697 "/><path fill="#2A316C" d="M64.157 61.979h3.184c0.443 0 0.863 0.041 1.259 0.121 0.395 0.081 0.741 0.221 1.035 0.418s0.528 0.464 0.702 0.799c0.174 0.335 0.26 0.757 0.26 1.265 0 0.501-0.081 0.92-0.242 1.259 -0.162 0.339-0.383 0.609-0.666 0.812 -0.282 0.201-0.617 0.345-1.004 0.429 -0.388 0.085-0.807 0.128-1.259 0.128h-1.38v3.341h-1.888V61.979zM66.045 65.61h1.259c0.17 0 0.333-0.016 0.49-0.048 0.158-0.032 0.299-0.086 0.424-0.164 0.125-0.076 0.226-0.181 0.303-0.313 0.077-0.134 0.115-0.301 0.115-0.503 0-0.218-0.05-0.394-0.151-0.526 -0.101-0.133-0.23-0.235-0.388-0.309 -0.157-0.073-0.333-0.119-0.526-0.14 -0.194-0.02-0.379-0.03-0.557-0.03h-0.969V65.61z"/><path fill="#2A316C" d="M74.615 61.979h1.562l3.728 8.57h-2.13l-0.738-1.815h-3.329l-0.714 1.815h-2.082L74.615 61.979zM75.341 64.472L74.3 67.136h2.094L75.341 64.472z"/><path fill="#2A316C" d="M81.672 61.979h3.316c0.437 0 0.85 0.042 1.241 0.127s0.734 0.227 1.029 0.425c0.294 0.197 0.527 0.464 0.701 0.799s0.261 0.752 0.261 1.252c0 0.605-0.157 1.119-0.472 1.543 -0.315 0.424-0.775 0.692-1.381 0.806l2.18 3.619h-2.264l-1.792-3.426h-0.932v3.426h-1.889V61.979zM83.561 65.526h1.113c0.17 0 0.349-0.006 0.539-0.019 0.189-0.012 0.36-0.048 0.514-0.109 0.153-0.06 0.28-0.155 0.382-0.284 0.101-0.128 0.151-0.31 0.151-0.544 0-0.218-0.045-0.392-0.133-0.521 -0.09-0.129-0.202-0.228-0.339-0.297 -0.138-0.068-0.295-0.114-0.473-0.139s-0.351-0.037-0.521-0.037h-1.234V65.526z"/><polygon fill="#2A316C" points="91.864 63.65 89.419 63.65 89.419 61.979 96.197 61.979 96.197 63.65 93.752 63.65 93.752 70.549 91.864 70.549 "/><polygon fill="#2A316C" points="98.062 61.979 100.627 61.979 104.271 67.935 104.295 67.935 104.295 61.979 106.183 61.979 106.183 70.549 103.714 70.549 99.974 64.449 99.949 64.449 99.949 70.549 98.062 70.549 "/><polygon fill="#2A316C" points="108.906 61.979 114.729 61.979 114.729 63.722 110.795 63.722 110.795 65.32 114.511 65.32 114.511 67.063 110.795 67.063 110.795 68.806 114.947 68.806 114.947 70.549 108.906 70.549 "/><path fill="#2A316C" d="M117.368 61.979h3.316c0.436 0 0.849 0.042 1.24 0.127s0.734 0.227 1.029 0.425c0.294 0.197 0.528 0.464 0.702 0.799 0.173 0.335 0.26 0.752 0.26 1.252 0 0.605-0.157 1.119-0.472 1.543 -0.315 0.424-0.775 0.692-1.38 0.806l2.179 3.619h-2.264l-1.792-3.426h-0.932v3.426h-1.888V61.979zM119.256 65.526h1.113c0.17 0 0.35-0.006 0.539-0.019 0.189-0.012 0.361-0.048 0.515-0.109 0.152-0.06 0.28-0.155 0.381-0.284 0.102-0.128 0.151-0.31 0.151-0.544 0-0.218-0.044-0.392-0.133-0.521s-0.202-0.228-0.339-0.297c-0.138-0.068-0.295-0.114-0.473-0.139s-0.351-0.037-0.521-0.037h-1.234V65.526z"/><path fill="#2A316C" d="M130.355 64.073c-0.153-0.193-0.361-0.337-0.623-0.429 -0.263-0.093-0.511-0.14-0.744-0.14 -0.138 0-0.279 0.017-0.424 0.049 -0.146 0.032-0.283 0.082-0.412 0.15s-0.234 0.16-0.314 0.273c-0.081 0.112-0.121 0.249-0.121 0.411 0 0.258 0.097 0.456 0.291 0.593 0.193 0.138 0.437 0.254 0.731 0.352 0.295 0.097 0.611 0.193 0.95 0.29s0.656 0.234 0.95 0.411c0.295 0.178 0.539 0.416 0.732 0.715 0.194 0.299 0.291 0.698 0.291 1.198 0 0.477-0.089 0.892-0.267 1.247 -0.178 0.354-0.418 0.649-0.72 0.883 -0.303 0.234-0.654 0.408-1.054 0.521 -0.399 0.113-0.821 0.17-1.265 0.17 -0.558 0-1.073-0.085-1.55-0.255 -0.476-0.169-0.92-0.443-1.331-0.822l1.343-1.477c0.194 0.258 0.438 0.458 0.733 0.599 0.294 0.142 0.599 0.212 0.914 0.212 0.152 0 0.309-0.018 0.466-0.055 0.156-0.036 0.298-0.091 0.423-0.163 0.125-0.073 0.227-0.166 0.303-0.278 0.076-0.113 0.115-0.246 0.115-0.399 0-0.259-0.099-0.462-0.296-0.611 -0.198-0.149-0.446-0.276-0.745-0.382 -0.299-0.104-0.621-0.209-0.968-0.314 -0.348-0.104-0.67-0.246-0.969-0.424 -0.299-0.177-0.547-0.411-0.744-0.702 -0.198-0.29-0.297-0.674-0.297-1.149 0-0.46 0.091-0.863 0.272-1.21 0.182-0.348 0.424-0.638 0.727-0.872 0.302-0.233 0.651-0.409 1.046-0.526 0.396-0.117 0.804-0.176 1.224-0.176 0.483 0 0.952 0.068 1.404 0.206 0.451 0.138 0.858 0.367 1.222 0.689L130.355 64.073z"/><polygon fill="#2A316C" points="133.975 61.979 135.863 61.979 135.863 65.175 139.53 65.175 139.53 61.979 141.419 61.979 141.419 70.549 139.53 70.549 139.53 66.845 135.863 66.845 135.863 70.549 133.975 70.549 "/><rect x="144.045" y="61.979" fill="#2A316C" width="1.889" height="8.57"/><path fill="#2A316C" d="M148.561 61.979h3.184c0.443 0 0.863 0.041 1.259 0.121 0.395 0.081 0.74 0.221 1.034 0.418 0.295 0.197 0.529 0.464 0.702 0.799 0.174 0.335 0.261 0.757 0.261 1.265 0 0.501-0.081 0.92-0.242 1.259s-0.383 0.609-0.666 0.812c-0.282 0.201-0.617 0.345-1.005 0.429 -0.387 0.085-0.807 0.128-1.259 0.128h-1.38v3.341h-1.888V61.979zM150.448 65.61h1.26c0.169 0 0.332-0.016 0.49-0.048 0.157-0.032 0.298-0.086 0.423-0.164 0.125-0.076 0.227-0.181 0.303-0.313 0.077-0.134 0.115-0.301 0.115-0.503 0-0.218-0.051-0.394-0.151-0.526s-0.23-0.235-0.388-0.309 -0.333-0.119-0.526-0.14c-0.193-0.02-0.379-0.03-0.557-0.03h-0.969V65.61z"/></svg>